<svg version="1.1" id="Layer_1" xmlns="http://www.w3.org/2000/svg" xmlns:xlink="http://www.w3.org/1999/xlink" x="0px" y="0px"
	 width="100%" viewBox="0 0 512 512" enable-background="new 0 0 512 512" xml:space="preserve">
<path fill="#D8532B" opacity="1.000000" stroke="none" 
	d="
M1.000001,279.000000 
	C1.000000,273.977905 1.000000,268.955811 1.294406,263.179596 
	C1.744044,256.984375 1.899275,251.543259 2.324465,245.826538 
	C6.158501,226.000229 10.035223,206.567535 17.078300,187.846741 
	C28.198879,158.287811 43.874062,131.407211 64.846245,107.930313 
	C83.730667,86.790543 105.358574,68.832138 130.233246,54.691677 
	C166.145538,34.276665 204.677063,23.345022 245.670853,21.227179 
	C259.010498,20.538019 272.504150,21.955618 285.878876,23.019436 
	C307.487366,24.738161 328.339081,30.016718 348.447815,38.052071 
	C355.774261,40.979660 362.827423,44.591003 370.035278,48.258255 
	C378.050079,65.213364 386.220795,81.695419 391.086792,99.601677 
	C396.134583,118.176697 399.954193,136.895874 399.998413,156.233185 
	C400.017639,164.633194 400.285339,173.045654 399.918915,181.429688 
	C399.573120,189.341339 399.003540,197.298416 397.726318,205.103607 
	C394.151825,226.947876 387.369324,247.868713 378.368958,268.066986 
	C377.695557,269.578278 376.187378,270.717651 375.084137,271.651489 
	C375.746765,269.412994 376.414948,267.560394 377.034607,265.691711 
	C381.022186,253.666550 379.927704,241.238312 379.964111,228.436554 
	C379.664551,221.052872 379.677704,214.094345 378.943848,207.215515 
	C377.197784,190.848022 370.461060,176.401764 359.605591,164.294983 
	C341.926392,144.577927 319.692078,134.039368 292.913971,134.011047 
	C252.776093,133.968582 212.638138,134.000000 172.500229,134.000000 
	C170.743637,134.000000 168.987030,134.000000 167.000000,134.000000 
	C167.000000,152.486404 166.993820,170.289948 167.001083,188.093506 
	C167.028427,255.044464 167.060150,321.995422 166.775269,389.230408 
	C166.311646,393.961060 165.944763,398.418793 166.169312,402.846466 
	C166.224716,403.939056 168.191147,405.823517 169.300400,405.839172 
	C183.710831,406.043091 198.125488,406.019592 212.537628,405.890625 
	C213.670227,405.880493 215.770737,404.647095 215.763428,404.000977 
	C215.706573,398.980804 215.242432,393.965302 214.945099,388.484497 
	C215.048599,369.021637 215.111282,350.022614 215.380615,331.017883 
	C215.587296,331.012238 216.000610,331.000000 216.469193,331.006409 
	C242.593140,331.010773 268.248688,330.948547 293.903809,331.028778 
	C309.860535,331.078674 324.457184,326.308655 337.563904,317.695587 
	C345.262024,312.636841 351.891235,305.951355 358.999481,300.367615 
	C358.131622,302.491669 357.487518,304.404236 356.365326,305.975342 
	C343.996521,323.291321 330.701691,339.825378 314.105804,353.338837 
	C303.071625,362.323639 292.172729,371.583801 280.421875,379.553864 
	C262.383698,391.788391 243.086517,402.065033 222.413147,409.073761 
	C205.362869,414.854187 187.952255,419.763062 170.424667,423.880432 
	C157.617981,426.888794 144.399063,428.307343 131.292618,429.815125 
	C122.917587,430.778656 114.392021,431.151978 105.970657,430.829956 
	C92.597252,430.318573 79.254524,429.004761 65.584656,427.899994 
	C59.504395,420.462158 53.492119,413.333832 48.021614,405.811462 
	C35.228680,388.220184 25.065414,369.172913 17.367151,348.813629 
	C10.326621,330.193848 5.215901,311.104980 2.966066,291.283813 
	C2.498875,287.167847 1.664925,283.093506 1.000001,279.000000 
z"/>
<path fill="#CC4521" opacity="1.000000" stroke="none" 
	d="
M65.898819,428.030426 
	C79.254524,429.004761 92.597252,430.318573 105.970657,430.829956 
	C114.392021,431.151978 122.917587,430.778656 131.292618,429.815125 
	C144.399063,428.307343 157.617981,426.888794 170.424667,423.880432 
	C187.952255,419.763062 205.362869,414.854187 222.413147,409.073761 
	C243.086517,402.065033 262.383698,391.788391 280.421875,379.553864 
	C292.172729,371.583801 303.071625,362.323639 314.105804,353.338837 
	C330.701691,339.825378 343.996521,323.291321 356.365326,305.975342 
	C357.487518,304.404236 358.131622,302.491669 359.147095,300.064819 
	C364.553375,290.271271 369.810303,281.150604 375.067261,272.029938 
	C376.187378,270.717651 377.695557,269.578278 378.368958,268.066986 
	C387.369324,247.868713 394.151825,226.947876 397.726318,205.103607 
	C399.003540,197.298416 399.573120,189.341339 399.918915,181.429688 
	C400.285339,173.045654 400.017639,164.633194 399.998413,156.233185 
	C399.954193,136.895874 396.134583,118.176697 391.086792,99.601677 
	C386.220795,81.695419 378.050079,65.213364 370.394928,48.322952 
	C371.191101,48.192585 371.676636,48.326431 372.121368,48.543747 
	C404.295441,64.264885 431.248291,86.616585 454.185150,113.873779 
	C471.646362,134.623962 484.972900,157.901093 495.087769,183.071060 
	C503.361267,203.658859 508.125214,225.076874 511.017700,247.415375 
	C511.667969,253.233734 512.333984,258.616852 513.000000,264.000000 
	C513.000000,268.689240 513.000000,273.378510 512.613403,278.719849 
	C511.164703,287.308075 510.170044,295.253906 509.027893,303.178497 
	C505.661255,326.537659 497.875122,348.537140 487.629211,369.634796 
	C477.979553,389.504700 465.887054,407.823914 451.175934,424.436493 
	C437.243134,440.170105 422.095947,454.435089 404.945465,466.635529 
	C386.947479,479.438934 367.623688,489.725830 346.986542,497.402466 
	C328.989166,504.097107 310.463867,508.992371 291.274414,511.035156 
	C287.159851,511.473175 283.090302,512.333923 279.000000,513.000000 
	C264.645782,513.000000 250.291550,513.000000 235.282791,512.613281 
	C167.223083,506.529938 111.358643,477.705627 65.898819,428.030426 
z"/>
<path fill="#FFFFFF" opacity="1.000000" stroke="none" 
	d="
M279.000000,1.000000 
	C356.927032,1.000000 434.854095,1.000000 513.000000,1.000000 
	C513.000000,78.687424 513.000000,156.375061 512.758362,234.512115 
	C512.516724,234.961533 512.038269,234.882797 512.022705,234.436157 
	C510.993713,225.038269 510.684387,215.937973 508.827240,207.165359 
	C504.310333,185.828796 497.777832,165.091644 488.141235,145.418365 
	C478.243622,125.212280 466.042023,106.613327 451.264374,89.577675 
	C437.296478,73.475479 421.604340,59.388512 404.404572,46.939255 
	C386.609253,34.058903 367.214172,23.991335 346.657074,16.408451 
	C328.776733,9.812937 310.367310,4.944475 291.303436,2.952082 
	C287.179321,2.521065 283.099976,1.661936 279.000000,1.000000 
z"/>
<path fill="#FFFFFF" opacity="1.000000" stroke="none" 
	d="
M1.000000,235.000000 
	C1.000000,157.072952 1.000000,79.145912 1.000000,1.000000 
	C78.687424,1.000000 156.375061,1.000000 234.331085,1.376771 
	C226.657944,2.817081 218.705048,3.802967 210.776932,4.958677 
	C186.691650,8.469669 164.049469,16.582600 142.376205,27.334246 
	C123.274483,36.810211 105.672821,48.610275 89.585320,62.753216 
	C73.392967,76.988335 58.801468,92.598358 46.408901,110.204628 
	C33.961979,127.888123 23.794546,146.894852 16.477064,167.221451 
	C8.613883,189.063919 2.651076,211.440643 1.724772,234.926025 
	C1.485436,234.969223 1.000000,235.000000 1.000000,235.000000 
z"/>
<path fill="#FFFFFF" opacity="1.000000" stroke="none" 
	d="
M279.468658,513.000000 
	C283.090302,512.333923 287.159851,511.473175 291.274414,511.035156 
	C310.463867,508.992371 328.989166,504.097107 346.986542,497.402466 
	C367.623688,489.725830 386.947479,479.438934 404.945465,466.635529 
	C422.095947,454.435089 437.243134,440.170105 451.175934,424.436493 
	C465.887054,407.823914 477.979553,389.504700 487.629211,369.634796 
	C497.875122,348.537140 505.661255,326.537659 509.027893,303.178497 
	C510.170044,295.253906 511.164703,287.308075 512.613403,279.185974 
	C513.000000,356.927032 513.000000,434.854095 513.000000,513.000000 
	C435.312561,513.000000 357.624939,513.000000 279.468658,513.000000 
z"/>
<path fill="#FFFFFF" opacity="1.000000" stroke="none" 
	d="
M65.584656,427.899994 
	C111.358643,477.705627 167.223083,506.529938 234.814133,512.613281 
	C157.072968,513.000000 79.145927,513.000000 1.000000,513.000000 
	C1.000000,435.312561 1.000000,357.624939 1.000001,279.468658 
	C1.664925,283.093506 2.498875,287.167847 2.966066,291.283813 
	C5.215901,311.104980 10.326621,330.193848 17.367151,348.813629 
	C25.065414,369.172913 35.228680,388.220184 48.021614,405.811462 
	C53.492119,413.333832 59.504395,420.462158 65.584656,427.899994 
z"/>
<path fill="#FB722D" opacity="1.000000" stroke="none" 
	d="
M1.964110,234.882828 
	C2.651076,211.440643 8.613883,189.063919 16.477064,167.221451 
	C23.794546,146.894852 33.961979,127.888123 46.408901,110.204628 
	C58.801468,92.598358 73.392967,76.988335 89.585320,62.753216 
	C105.672821,48.610275 123.274483,36.810211 142.376205,27.334246 
	C164.049469,16.582600 186.691650,8.469669 210.776932,4.958677 
	C218.705048,3.802967 226.657944,2.817081 234.799744,1.376771 
	C249.354233,1.000000 263.708466,1.000000 278.531342,1.000000 
	C283.099976,1.661936 287.179321,2.521065 291.303436,2.952082 
	C310.367310,4.944475 328.776733,9.812937 346.657074,16.408451 
	C367.214172,23.991335 386.609253,34.058903 404.404572,46.939255 
	C421.604340,59.388512 437.296478,73.475479 451.264374,89.577675 
	C466.042023,106.613327 478.243622,125.212280 488.141235,145.418365 
	C497.777832,165.091644 504.310333,185.828796 508.827240,207.165359 
	C510.684387,215.937973 510.993713,225.038269 512.010437,234.786316 
	C512.342529,236.388748 512.671265,237.194366 513.000000,238.000000 
	C513.000000,240.700012 513.000000,243.400024 512.671997,246.549820 
	C511.907135,246.993118 511.470276,246.986618 511.033417,246.980133 
	C508.125214,225.076874 503.361267,203.658859 495.087769,183.071060 
	C484.972900,157.901093 471.646362,134.623962 454.185150,113.873779 
	C431.248291,86.616585 404.295441,64.264885 372.121368,48.543747 
	C371.676636,48.326431 371.191101,48.192585 370.364929,47.955093 
	C362.827423,44.591003 355.774261,40.979660 348.447815,38.052071 
	C328.339081,30.016718 307.487366,24.738161 285.878876,23.019436 
	C272.504150,21.955618 259.010498,20.538019 245.670853,21.227179 
	C204.677063,23.345022 166.145538,34.276665 130.233246,54.691677 
	C105.358574,68.832138 83.730667,86.790543 64.846245,107.930313 
	C43.874062,131.407211 28.198879,158.287811 17.078300,187.846741 
	C10.035223,206.567535 6.158501,226.000229 2.287387,245.533081 
	C1.959724,245.319977 1.939096,245.124741 1.819861,244.726685 
	C1.542697,244.264145 1.302279,244.089523 1.000000,244.000000 
	C1.000000,241.629440 1.000000,239.258896 1.227024,236.323273 
	C1.624069,235.466400 1.794090,235.174622 1.964110,234.882828 
z"/>
<path fill="#EF682C" opacity="1.000000" stroke="none" 
	d="
M1.918469,244.929520 
	C1.939096,245.124741 1.959724,245.319977 2.017429,245.808685 
	C1.899275,251.543259 1.744044,256.984375 1.294406,262.712738 
	C1.000000,257.311951 1.000000,251.623917 1.229801,245.452728 
	C1.459603,244.969559 1.918469,244.929520 1.918469,244.929520 
z"/>
<path fill="#EA6229" opacity="1.000000" stroke="none" 
	d="
M511.017700,247.415359 
	C511.470276,246.986618 511.907135,246.993118 512.671997,246.999802 
	C513.000000,252.354935 513.000000,257.709869 513.000000,263.532410 
	C512.333984,258.616852 511.667969,253.233734 511.017700,247.415359 
z"/>
<path fill="#EA6229" opacity="1.000000" stroke="none" 
	d="
M513.000000,237.625000 
	C512.671265,237.194366 512.342529,236.388748 512.026001,235.232956 
	C512.038269,234.882797 512.516724,234.961533 512.758362,234.980774 
	C513.000000,235.750000 513.000000,236.500000 513.000000,237.625000 
z"/>
<path fill="#D8532B" opacity="1.000000" stroke="none" 
	d="
M1.819861,244.726685 
	C1.918469,244.929520 1.459603,244.969559 1.229801,244.984772 
	C1.000000,245.000000 1.000000,244.500000 1.000000,244.250000 
	C1.302279,244.089523 1.542697,244.264145 1.819861,244.726685 
z"/>
<path fill="#EF682C" opacity="1.000000" stroke="none" 
	d="
M1.724773,234.926025 
	C1.794090,235.174622 1.624069,235.466400 1.227024,235.879089 
	C1.000000,236.000000 1.000000,235.500000 1.000000,235.250000 
	C1.000000,235.000000 1.485436,234.969223 1.724773,234.926025 
z"/>
<path fill="#FFFFFF" opacity="1.000000" stroke="none" 
	d="
M167.090225,388.946381 
	C167.060150,321.995422 167.028427,255.044464 167.001083,188.093506 
	C166.993820,170.289948 167.000000,152.486404 167.000000,134.000000 
	C168.987030,134.000000 170.743637,134.000000 172.500229,134.000000 
	C212.638138,134.000000 252.776093,133.968582 292.913971,134.011047 
	C319.692078,134.039368 341.926392,144.577927 359.605591,164.294983 
	C370.461060,176.401764 377.197784,190.848022 378.943848,207.215515 
	C379.677704,214.094345 379.664551,221.052872 379.621002,228.667175 
	C377.805450,246.774750 370.473053,261.863129 359.423492,274.861603 
	C342.923340,294.272003 321.145233,303.894440 295.499634,306.096924 
	C268.460052,306.029602 241.882233,306.029602 215.173950,306.029602 
	C215.173950,314.761353 215.173950,322.892456 215.173950,331.023560 
	C215.111282,350.022614 215.048599,369.021637 214.482819,388.505829 
	C198.349884,388.976105 182.720062,388.961243 167.090225,388.946381 
M294.611633,182.232880 
	C268.415100,182.190842 242.218552,182.147202 216.022003,182.130173 
	C215.763992,182.130005 215.505753,182.482330 215.171982,182.725098 
	C215.171982,188.126984 215.171982,193.577942 215.028992,199.952805 
	C215.028992,218.863846 215.028992,237.774902 215.028992,257.000000 
	C217.381607,257.000000 219.183945,257.000000 220.986298,257.000000 
	C244.954895,257.000000 268.923615,257.038513 292.891937,256.954559 
	C296.138702,256.943176 299.455841,256.637451 302.616333,255.920868 
	C315.955078,252.896652 327.650574,239.871384 329.028992,226.166290 
	C329.026794,221.495438 329.463043,216.775070 328.942200,212.162781 
	C327.208221,196.807556 310.693268,182.334793 294.611633,182.232880 
z"/>
<path fill="#FC732D" opacity="1.000000" stroke="none" 
	d="
M295.961456,306.164246 
	C321.145233,303.894440 342.923340,294.272003 359.423492,274.861603 
	C370.473053,261.863129 377.805450,246.774750 379.594177,229.128571 
	C379.927704,241.238312 381.022186,253.666550 377.034607,265.691711 
	C376.414948,267.560394 375.746765,269.412994 375.084137,271.651489 
	C369.810303,281.150604 364.553375,290.271271 359.148804,299.694763 
	C351.891235,305.951355 345.262024,312.636841 337.563904,317.695587 
	C324.457184,326.308655 309.860535,331.078674 293.903809,331.028778 
	C268.248688,330.948547 242.593140,331.010773 216.469208,330.537781 
	C216.000671,324.407593 216.405777,318.714783 215.884247,313.108185 
	C215.385468,307.746033 217.512161,306.841949 222.344086,306.892914 
	C245.128387,307.133240 267.916656,307.018250 290.703369,306.963745 
	C292.456696,306.959564 294.208801,306.442749 295.961456,306.164246 
z"/>
<path fill="#FC732D" opacity="1.000000" stroke="none" 
	d="
M166.775269,389.230408 
	C182.720062,388.961243 198.349884,388.976105 214.441986,388.969666 
	C215.242432,393.965302 215.706573,398.980804 215.763428,404.000977 
	C215.770737,404.647095 213.670227,405.880493 212.537628,405.890625 
	C198.125488,406.019592 183.710831,406.043091 169.300400,405.839172 
	C168.191147,405.823517 166.224716,403.939056 166.169312,402.846466 
	C165.944763,398.418793 166.311646,393.961060 166.775269,389.230408 
z"/>
<path fill="#EF682C" opacity="1.000000" stroke="none" 
	d="
M295.499634,306.096924 
	C294.208801,306.442749 292.456696,306.959564 290.703369,306.963745 
	C267.916656,307.018250 245.128387,307.133240 222.344086,306.892914 
	C217.512161,306.841949 215.385468,307.746033 215.884247,313.108185 
	C216.405777,318.714783 216.000671,324.407593 216.000610,330.531372 
	C216.000610,331.000000 215.587296,331.012238 215.380615,331.017883 
	C215.173950,322.892456 215.173950,314.761353 215.173950,306.029602 
	C241.882233,306.029602 268.460052,306.029602 295.499634,306.096924 
z"/>
<path fill="#CC4521" opacity="1.000000" stroke="none" 
	d="
M328.846436,226.990585 
	C327.650574,239.871384 315.955078,252.896652 302.616333,255.920868 
	C299.455841,256.637451 296.138702,256.943176 292.891937,256.954559 
	C268.923615,257.038513 244.954895,257.000000 220.986298,257.000000 
	C219.183945,257.000000 217.381607,257.000000 215.028992,257.000000 
	C215.028992,237.774902 215.028992,218.863846 215.310699,199.481430 
	C215.592407,199.010056 216.012222,198.980743 216.479950,198.994507 
	C240.600174,199.012390 264.254089,198.859421 287.904663,199.074921 
	C304.164093,199.223068 317.240234,205.350677 325.009003,220.484756 
	C326.156830,222.720779 327.560913,224.825241 328.846436,226.990585 
z"/>
<path fill="#FC732D" opacity="1.000000" stroke="none" 
	d="
M328.937714,226.578430 
	C327.560913,224.825241 326.156830,222.720779 325.009003,220.484756 
	C317.240234,205.350677 304.164093,199.223068 287.904663,199.074921 
	C264.254089,198.859421 240.600174,199.012390 216.475861,198.529114 
	C216.003113,195.392212 216.000977,192.734451 216.001450,190.076675 
	C216.002701,183.002319 216.003143,183.003021 222.840652,182.999252 
	C246.926575,182.986008 271.012482,182.972229 295.098419,182.958649 
	C310.693268,182.334793 327.208221,196.807556 328.942200,212.162781 
	C329.463043,216.775070 329.026794,221.495438 328.937714,226.578430 
z"/>
<path fill="#EA6229" opacity="1.000000" stroke="none" 
	d="
M294.855042,182.595764 
	C271.012482,182.972229 246.926575,182.986008 222.840652,182.999252 
	C216.003143,183.003021 216.002701,183.002319 216.001450,190.076675 
	C216.000977,192.734451 216.003113,195.392212 216.008148,198.515366 
	C216.012222,198.980743 215.592407,199.010056 215.382202,199.019470 
	C215.171982,193.577942 215.171982,188.126984 215.171982,182.725098 
	C215.505753,182.482330 215.763992,182.130005 216.022003,182.130173 
	C242.218552,182.147202 268.415100,182.190842 294.855042,182.595764 
z"/>
</svg>